<svg xmlns="http://www.w3.org/2000/svg" width="1580" height="930" viewBox="0 0 1580 930"><defs>
  <marker id="ah" markerWidth="9" markerHeight="9" refX="7" refY="4.5" orient="auto"><path d="M0,0 L9,4.5 L0,9 z" fill="#151515"/></marker>
  <marker id="ahd" markerWidth="9" markerHeight="9" refX="7" refY="4.5" orient="auto"><path d="M0,0 L9,4.5 L0,9 z" fill="#6A6E73"/></marker>
</defs><rect width="1580" height="930" fill="#FFFFFF"/><text x="790" y="42" font-family="Arial, Helvetica, sans-serif" font-size="26" font-weight="800" fill="#151515" text-anchor="middle">Video Search &amp; Summarization on Red Hat AI</text><text x="790" y="68" font-family="Arial, Helvetica, sans-serif" font-size="15" font-weight="500" fill="#6A6E73" text-anchor="middle">dev-profile-base pipeline</text><rect x="210" y="95" width="1150" height="800" rx="18" fill="#FAFAFA" stroke="#B8BBBE" stroke-width="1.6"/><rect x="210" y="95" width="7" height="800" rx="3" fill="#EE0000"/><text x="232" y="121" font-family="Arial, Helvetica, sans-serif" font-size="15" font-weight="800" fill="#EE0000" text-anchor="start">Red Hat AI Enterprise</text><line x1="228" y1="512" x2="835" y2="512" stroke="#B8BBBE" stroke-width="1.4" stroke-dasharray="6 7"/><text x="232" y="500" font-family="Arial, Helvetica, sans-serif" font-size="11.5" font-weight="700" fill="#6A6E73" text-anchor="start">QUERY / RESPONSE</text><text x="232" y="532" font-family="Arial, Helvetica, sans-serif" font-size="11.5" font-weight="700" fill="#6A6E73" text-anchor="start">INGESTION PIPELINE</text><rect x="852" y="250" width="190" height="560" rx="14" fill="#F0F0F0" stroke="#B8BBBE" stroke-width="1.4"/><text x="947" y="274" font-family="Arial, Helvetica, sans-serif" font-size="15" font-weight="800" fill="#151515" text-anchor="middle">Model Serving</text><text x="947" y="726" font-family="Arial, Helvetica, sans-serif" font-size="10.5" font-weight="600" fill="#6A6E73" text-anchor="middle">served via (choose one):</text><rect x="868" y="738" width="158" height="24" rx="12" fill="#FFFFFF" stroke="#B8BBBE" stroke-width="1.2"/><text x="947" y="754" font-family="Arial, Helvetica, sans-serif" font-size="11.5" font-weight="700" fill="#151515" text-anchor="middle">KServe (on-cluster)</text><rect x="868" y="770" width="158" height="24" rx="12" fill="#FFFFFF" stroke="#B8BBBE" stroke-width="1.2"/><text x="947" y="786" font-family="Arial, Helvetica, sans-serif" font-size="11.5" font-weight="700" fill="#151515" text-anchor="middle">NGC cloud</text><rect x="1075" y="250" width="270" height="500" rx="14" fill="#F0F0F0" stroke="#B8BBBE" stroke-width="1.4"/><text x="1210" y="274" font-family="Arial, Helvetica, sans-serif" font-size="15" font-weight="800" fill="#151515" text-anchor="middle">Observability</text><rect x="69" y="279" width="82" height="82" rx="14" fill="#0066CC"/><circle cx="110" cy="307" r="11" fill="#FFFFFF"/><path d="M 91 340 a 19 17 0 0 1 38 0 z" fill="#FFFFFF"/><text x="110" y="381" font-family="Arial, Helvetica, sans-serif" font-size="14" font-weight="600" fill="#151515" text-anchor="middle">User</text><rect x="256" y="276" width="88" height="88" rx="14" fill="#009596"/><rect x="278" y="302" width="44" height="30" rx="3" fill="#FFFFFF"/><rect x="282" y="306" width="36" height="22" rx="2" fill="#009596"/><rect x="294" y="332" width="12" height="6" fill="#FFFFFF"/><rect x="286" y="338" width="28" height="4" rx="2" fill="#FFFFFF"/><text x="300" y="384" font-family="Arial, Helvetica, sans-serif" font-size="14" font-weight="600" fill="#151515" text-anchor="middle">Web UI</text><text x="300" y="400" font-family="Arial, Helvetica, sans-serif" font-size="14" font-weight="600" fill="#151515" text-anchor="middle">(upload + chat)</text><rect x="456" y="276" width="88" height="88" rx="14" fill="#EE0000"/><line x1="500" y1="320" x2="500" y2="302" stroke="#FFFFFF" stroke-width="3"/><line x1="500" y1="320" x2="484" y2="330" stroke="#FFFFFF" stroke-width="3"/><line x1="500" y1="320" x2="516" y2="330" stroke="#FFFFFF" stroke-width="3"/><circle cx="500" cy="302" r="6" fill="#FFFFFF"/><circle cx="484" cy="330" r="6" fill="#FFFFFF"/><circle cx="516" cy="330" r="6" fill="#FFFFFF"/><circle cx="500" cy="320" r="9" fill="#FFFFFF"/><text x="500" y="384" font-family="Arial, Helvetica, sans-serif" font-size="14" font-weight="600" fill="#151515" text-anchor="middle">VSS Agent</text><text x="500" y="400" font-family="Arial, Helvetica, sans-serif" font-size="14" font-weight="600" fill="#151515" text-anchor="middle">(orchestration)</text><rect x="569" y="439" width="62" height="62" rx="12" fill="#8476D1"/><ellipse cx="600" cy="457" rx="15" ry="6" fill="#FFFFFF"/><rect x="585" y="457" width="30" height="26" fill="#FFFFFF"/><ellipse cx="600" cy="483" rx="15" ry="6" fill="#FFFFFF"/><ellipse cx="600" cy="457" rx="15" ry="6" fill="none" stroke="#8476D1" stroke-width="2"/><ellipse cx="600" cy="466" rx="15" ry="6" fill="none" stroke="#8476D1" stroke-width="2"/><text x="600" y="518" font-family="Arial, Helvetica, sans-serif" font-size="13" font-weight="600" fill="#151515" text-anchor="middle">Redis</text><rect x="256" y="616" width="88" height="88" rx="14" fill="#E8622D"/><circle cx="300" cy="660" r="20" fill="#FFFFFF"/><path d="M 294 651 L 311 660 L 294 669 z" fill="#E8622D"/><text x="300" y="724" font-family="Arial, Helvetica, sans-serif" font-size="14" font-weight="600" fill="#151515" text-anchor="middle">Video Upload</text><text x="300" y="740" font-family="Arial, Helvetica, sans-serif" font-size="14" font-weight="600" fill="#151515" text-anchor="middle">/ Camera</text><rect x="431" y="616" width="88" height="88" rx="14" fill="#F0AB00"/><rect x="471" y="637" width="8" height="13" rx="2" fill="#FFFFFF" transform="rotate(0 475 660)"/><rect x="471" y="637" width="8" height="13" rx="2" fill="#FFFFFF" transform="rotate(45 475 660)"/><rect x="471" y="637" width="8" height="13" rx="2" fill="#FFFFFF" transform="rotate(90 475 660)"/><rect x="471" y="637" width="8" height="13" rx="2" fill="#FFFFFF" transform="rotate(135 475 660)"/><rect x="471" y="637" width="8" height="13" rx="2" fill="#FFFFFF" transform="rotate(180 475 660)"/><rect x="471" y="637" width="8" height="13" rx="2" fill="#FFFFFF" transform="rotate(225 475 660)"/><rect x="471" y="637" width="8" height="13" rx="2" fill="#FFFFFF" transform="rotate(270 475 660)"/><rect x="471" y="637" width="8" height="13" rx="2" fill="#FFFFFF" transform="rotate(315 475 660)"/><circle cx="475" cy="660" r="17" fill="#FFFFFF"/><circle cx="475" cy="660" r="7.14" fill="#F0AB00"/><text x="475" y="724" font-family="Arial, Helvetica, sans-serif" font-size="14" font-weight="600" fill="#151515" text-anchor="middle">VST Ingress</text><rect x="601" y="616" width="88" height="88" rx="14" fill="#F0AB00"/><rect x="641" y="637" width="8" height="13" rx="2" fill="#FFFFFF" transform="rotate(0 645 660)"/><rect x="641" y="637" width="8" height="13" rx="2" fill="#FFFFFF" transform="rotate(45 645 660)"/><rect x="641" y="637" width="8" height="13" rx="2" fill="#FFFFFF" transform="rotate(90 645 660)"/><rect x="641" y="637" width="8" height="13" rx="2" fill="#FFFFFF" transform="rotate(135 645 660)"/><rect x="641" y="637" width="8" height="13" rx="2" fill="#FFFFFF" transform="rotate(180 645 660)"/><rect x="641" y="637" width="8" height="13" rx="2" fill="#FFFFFF" transform="rotate(225 645 660)"/><rect x="641" y="637" width="8" height="13" rx="2" fill="#FFFFFF" transform="rotate(270 645 660)"/><rect x="641" y="637" width="8" height="13" rx="2" fill="#FFFFFF" transform="rotate(315 645 660)"/><circle cx="645" cy="660" r="17" fill="#FFFFFF"/><circle cx="645" cy="660" r="7.14" fill="#F0AB00"/><text x="645" y="724" font-family="Arial, Helvetica, sans-serif" font-size="14" font-weight="600" fill="#151515" text-anchor="middle">Sensor</text><rect x="751" y="616" width="88" height="88" rx="14" fill="#F0AB00"/><rect x="791" y="637" width="8" height="13" rx="2" fill="#FFFFFF" transform="rotate(0 795 660)"/><rect x="791" y="637" width="8" height="13" rx="2" fill="#FFFFFF" transform="rotate(45 795 660)"/><rect x="791" y="637" width="8" height="13" rx="2" fill="#FFFFFF" transform="rotate(90 795 660)"/><rect x="791" y="637" width="8" height="13" rx="2" fill="#FFFFFF" transform="rotate(135 795 660)"/><rect x="791" y="637" width="8" height="13" rx="2" fill="#FFFFFF" transform="rotate(180 795 660)"/><rect x="791" y="637" width="8" height="13" rx="2" fill="#FFFFFF" transform="rotate(225 795 660)"/><rect x="791" y="637" width="8" height="13" rx="2" fill="#FFFFFF" transform="rotate(270 795 660)"/><rect x="791" y="637" width="8" height="13" rx="2" fill="#FFFFFF" transform="rotate(315 795 660)"/><circle cx="795" cy="660" r="17" fill="#FFFFFF"/><circle cx="795" cy="660" r="7.14" fill="#F0AB00"/><rect x="809" y="607" width="34" height="18" rx="9" fill="#151515"/><text x="826" y="620" font-family="Arial, Helvetica, sans-serif" font-size="11" font-weight="700" fill="#FFFFFF" text-anchor="middle">GPU</text><text x="795" y="724" font-family="Arial, Helvetica, sans-serif" font-size="14" font-weight="600" fill="#151515" text-anchor="middle">Stream</text><text x="795" y="740" font-family="Arial, Helvetica, sans-serif" font-size="14" font-weight="600" fill="#151515" text-anchor="middle">Processing</text><rect x="684" y="807" width="62" height="62" rx="12" fill="#8476D1"/><ellipse cx="715" cy="825" rx="15" ry="6" fill="#FFFFFF"/><rect x="700" y="825" width="30" height="26" fill="#FFFFFF"/><ellipse cx="715" cy="851" rx="15" ry="6" fill="#FFFFFF"/><ellipse cx="715" cy="825" rx="15" ry="6" fill="none" stroke="#8476D1" stroke-width="2"/><ellipse cx="715" cy="834" rx="15" ry="6" fill="none" stroke="#8476D1" stroke-width="2"/><text x="715" y="886" font-family="Arial, Helvetica, sans-serif" font-size="13" font-weight="600" fill="#151515" text-anchor="middle">Postgres</text><polygon points="993.0,370.0 970.0,409.8 924.0,409.8 901.0,370.0 924.0,330.2 970.0,330.2" fill="#76B900"/><line x1="947" y1="368" x2="932" y2="362" stroke="#FFFFFF" stroke-width="2.5"/><line x1="947" y1="368" x2="962" y2="362" stroke="#FFFFFF" stroke-width="2.5"/><line x1="947" y1="368" x2="947" y2="383" stroke="#FFFFFF" stroke-width="2.5"/><circle cx="932" cy="362" r="5.5" fill="#FFFFFF"/><circle cx="962" cy="362" r="5.5" fill="#FFFFFF"/><circle cx="947" cy="383" r="5.5" fill="#FFFFFF"/><circle cx="947" cy="368" r="7" fill="#FFFFFF"/><text x="947" y="427.83716857408416" font-family="Arial, Helvetica, sans-serif" font-size="13.5" font-weight="700" fill="#151515" text-anchor="middle">e.g. Nemotron</text><text x="947" y="443.83716857408416" font-family="Arial, Helvetica, sans-serif" font-size="13.5" font-weight="700" fill="#151515" text-anchor="middle">Nano 9B</text><rect x="925" y="305.16283142591584" width="44" height="18" rx="9" fill="#151515"/><text x="947" y="318.16283142591584" font-family="Arial, Helvetica, sans-serif" font-size="11.5" font-weight="800" fill="#FFFFFF" text-anchor="middle">LLM</text><polygon points="993.0,630.0 970.0,669.8 924.0,669.8 901.0,630.0 924.0,590.2 970.0,590.2" fill="#76B900"/><line x1="947" y1="628" x2="932" y2="622" stroke="#FFFFFF" stroke-width="2.5"/><line x1="947" y1="628" x2="962" y2="622" stroke="#FFFFFF" stroke-width="2.5"/><line x1="947" y1="628" x2="947" y2="643" stroke="#FFFFFF" stroke-width="2.5"/><circle cx="932" cy="622" r="5.5" fill="#FFFFFF"/><circle cx="962" cy="622" r="5.5" fill="#FFFFFF"/><circle cx="947" cy="643" r="5.5" fill="#FFFFFF"/><circle cx="947" cy="628" r="7" fill="#FFFFFF"/><text x="947" y="687.8371685740842" font-family="Arial, Helvetica, sans-serif" font-size="13.5" font-weight="700" fill="#151515" text-anchor="middle">e.g. Cosmos3</text><text x="947" y="703.8371685740842" font-family="Arial, Helvetica, sans-serif" font-size="13.5" font-weight="700" fill="#151515" text-anchor="middle">Reasoner</text><rect x="925" y="565.1628314259158" width="44" height="18" rx="9" fill="#151515"/><text x="947" y="578.1628314259158" font-family="Arial, Helvetica, sans-serif" font-size="11.5" font-weight="800" fill="#FFFFFF" text-anchor="middle">VLM</text><rect x="1095" y="407" width="66" height="66" rx="14" fill="#F0AB00"/><path d="M 1112 426 L 1144 426 L 1132 442 L 1132 456 L 1124 452 L 1124 442 z" fill="#FFFFFF"/><text x="1128" y="493" font-family="Arial, Helvetica, sans-serif" font-size="12" font-weight="600" fill="#151515" text-anchor="middle">OTel</text><text x="1128" y="509" font-family="Arial, Helvetica, sans-serif" font-size="12" font-weight="600" fill="#151515" text-anchor="middle">Collector</text><rect x="1259" y="407" width="66" height="66" rx="14" fill="#E8622D"/><polyline points="1274,440 1284,440 1289,427 1295,453 1300,440 1310,440" fill="none" stroke="#FFFFFF" stroke-width="3" stroke-linejoin="round" stroke-linecap="round"/><text x="1292" y="493" font-family="Arial, Helvetica, sans-serif" font-size="12" font-weight="600" fill="#151515" text-anchor="middle">Prometheus</text><text x="1292" y="509" font-family="Arial, Helvetica, sans-serif" font-size="12" font-weight="600" fill="#151515" text-anchor="middle">(UWM)</text><rect x="1095" y="527" width="66" height="66" rx="14" fill="#0066CC"/><path d="M 1123 544 L 1123 556 L 1113 574 L 1143 574 L 1133 556 L 1133 544 z" fill="none" stroke="#FFFFFF" stroke-width="3" stroke-linejoin="round"/><line x1="1120" y1="544" x2="1136" y2="544" stroke="#FFFFFF" stroke-width="3" stroke-linecap="round"/><rect x="1119" y="564" width="18" height="10" fill="#FFFFFF"/><text x="1128" y="613" font-family="Arial, Helvetica, sans-serif" font-size="12" font-weight="600" fill="#151515" text-anchor="middle">MLflow</text><rect x="1259" y="527" width="66" height="66" rx="14" fill="#009596"/><rect x="1276" y="558" width="8" height="16" fill="#FFFFFF"/><rect x="1288" y="546" width="8" height="28" fill="#FFFFFF"/><rect x="1300" y="552" width="8" height="22" fill="#FFFFFF"/><text x="1292" y="613" font-family="Arial, Helvetica, sans-serif" font-size="12" font-weight="600" fill="#151515" text-anchor="middle">Grafana</text><path d="M 151 320 L 259 320" fill="none" stroke="#151515" stroke-width="2.4" marker-end="url(#ah)" marker-start="url(#ah)"/><path d="M 344 308 L 456 308" fill="none" stroke="#151515" stroke-width="2.4" marker-end="url(#ah)"/><path d="M 456 332 L 344 332" fill="none" stroke="#151515" stroke-width="2.4" marker-end="url(#ah)"/><rect x="377.5" y="289.5" width="45.00000000000001" height="18.5" rx="4" fill="#FFFFFF"/><text x="400" y="300" font-family="Arial, Helvetica, sans-serif" font-size="12.5" font-weight="600" fill="#6A6E73" text-anchor="middle">query</text><rect x="374" y="339.5" width="52.00000000000001" height="18.5" rx="4" fill="#FFFFFF"/><text x="400" y="350" font-family="Arial, Helvetica, sans-serif" font-size="12.5" font-weight="600" fill="#6A6E73" text-anchor="middle">answer</text><path d="M 544 362 L 600 362 L 600 439" fill="none" stroke="#151515" stroke-width="2" marker-end="url(#ah)" marker-start="url(#ah)"/><text x="615" y="412" font-family="Arial, Helvetica, sans-serif" font-size="12" font-weight="600" fill="#6A6E73" text-anchor="start">state</text><path d="M 456 352 L 444 352 L 444 600 L 476 600 L 476 617" fill="none" stroke="#151515" stroke-width="2.4" marker-end="url(#ah)"/><rect x="418" y="529.5" width="52.00000000000001" height="18.5" rx="4" fill="#FFFFFF"/><text x="444" y="540" font-family="Arial, Helvetica, sans-serif" font-size="12.5" font-weight="600" fill="#6A6E73" text-anchor="middle">ingest</text><path d="M 344 660 L 431 660" fill="none" stroke="#151515" stroke-width="2.4" marker-end="url(#ah)"/><path d="M 519 660 L 601 660" fill="none" stroke="#151515" stroke-width="2.4" marker-end="url(#ah)"/><path d="M 689 660 L 751 660" fill="none" stroke="#151515" stroke-width="2.4" marker-end="url(#ah)"/><path d="M 839 660 L 903 634" fill="none" stroke="#151515" stroke-width="2.4" marker-end="url(#ah)"/><rect x="848" y="621.5" width="52.00000000000001" height="18.5" rx="4" fill="#FFFFFF"/><text x="874" y="632" font-family="Arial, Helvetica, sans-serif" font-size="12.5" font-weight="600" fill="#6A6E73" text-anchor="middle">frames</text><path d="M 751 690 L 715 690 L 715 807" fill="none" stroke="#151515" stroke-width="2" marker-end="url(#ah)" marker-start="url(#ah)"/><rect x="667" y="741.5" width="66" height="18.5" rx="4" fill="#FFFFFF"/><text x="700" y="752" font-family="Arial, Helvetica, sans-serif" font-size="12.5" font-weight="600" fill="#6A6E73" text-anchor="middle">metadata</text><path d="M 947 590 L 875 590 L 875 370 L 901 370" fill="none" stroke="#151515" stroke-width="2.4" marker-end="url(#ah)"/><rect x="842" y="469.5" width="66" height="18.5" rx="4" fill="#FFFFFF"/><text x="875" y="480" font-family="Arial, Helvetica, sans-serif" font-size="12.5" font-weight="600" fill="#6A6E73" text-anchor="middle">captions</text><path d="M 544 300 L 852 322" fill="none" stroke="#151515" stroke-width="2.4" marker-end="url(#ah)"/><rect x="670.5" y="279.5" width="59.00000000000001" height="18.5" rx="4" fill="#FFFFFF"/><text x="700" y="290" font-family="Arial, Helvetica, sans-serif" font-size="12.5" font-weight="600" fill="#6A6E73" text-anchor="middle">prompts</text><path d="M 852 352 L 544 344" fill="none" stroke="#151515" stroke-width="2.4" marker-end="url(#ah)"/><rect x="663.5" y="363.5" width="73" height="18.5" rx="4" fill="#FFFFFF"/><text x="700" y="374" font-family="Arial, Helvetica, sans-serif" font-size="12.5" font-weight="600" fill="#6A6E73" text-anchor="middle">summaries</text><path d="M 500 276 L 500 212 L 1292 212" fill="none" stroke="#6A6E73" stroke-width="2.4" stroke-dasharray="7 6"/><line x1="947" y1="250" x2="947" y2="212" stroke="#6A6E73" stroke-width="2.4" stroke-dasharray="7 6"/><rect x="640" y="195.5" width="150.00000000000003" height="18.5" rx="4" fill="#FFFFFF"/><text x="715" y="206" font-family="Arial, Helvetica, sans-serif" font-size="12.5" font-weight="600" fill="#6A6E73" text-anchor="middle">metrics &amp; traces</text><path d="M 1128 212 L 1128 407" fill="none" stroke="#151515" stroke-width="2.4" stroke-dasharray="7 6" marker-end="url(#ahd)"/><path d="M 1292 212 L 1292 407" fill="none" stroke="#151515" stroke-width="2.4" stroke-dasharray="7 6" marker-end="url(#ahd)"/><path d="M 1095 440 L 1086 440 L 1086 560 L 1095 560" fill="none" stroke="#151515" stroke-width="2" marker-end="url(#ah)"/><path d="M 1325 440 L 1334 440 L 1334 560 L 1325 560" fill="none" stroke="#151515" stroke-width="2" marker-end="url(#ah)"/></svg>